<svg xmlns="http://www.w3.org/2000/svg" width="37" height="37" viewBox="0 0 37 37">
  <g id="Group_10430" data-name="Group 10430" transform="translate(-335.453 -55.453)">
    <rect id="Rectangle_13809" data-name="Rectangle 13809" width="37" height="37" rx="4" transform="translate(335.453 55.453)" fill="#f3f3f3"/>
    <path id="fi-sr-arrow-small-right" d="M17.527,6.452a1.543,1.543,0,0,0,0,2.181L22.6,13.712l-16.062.011a1.543,1.543,0,0,0,0,3.085L22.606,16.8l-5.079,5.079a1.542,1.542,0,1,0,2.181,2.181l5.531-5.53a4.628,4.628,0,0,0,0-6.545L19.708,6.452A1.542,1.542,0,0,0,17.527,6.452Z" transform="translate(337.803 58.363)" fill="#575858"/>
  </g>
</svg>
